

<svg version="1.1" id="Layer_1" xmlns="http://www.w3.org/2000/svg" xmlns:xlink="http://www.w3.org/1999/xlink" x="0px" y="0px"
	 width="100%" viewBox="0 0 1024 1024" enable-background="new 0 0 1024 1024" xml:space="preserve">
<path fill="#ab7657" opacity="1.000000" stroke="none" 


	d="
M939.324707,551.912598 
	C933.243347,622.397949 910.548706,686.824951 872.653015,745.731995 
	C840.317444,795.996155 798.519165,837.178101 748.524902,870.011719 
	C699.884155,901.956360 646.981873,923.152954 589.701294,933.478943 
	C561.620422,938.541077 533.324158,941.114929 504.819733,940.192444 
	C424.911499,937.606323 350.845245,915.599792 283.205261,872.644714 
	C234.729645,841.860046 194.126846,802.838684 161.941193,755.312134 
	C129.099121,706.816223 106.371109,653.964600 94.524445,596.422913 
	C87.324905,561.453247 85.256310,526.159607 86.929466,490.707336 
	C90.359192,418.035767 111.145309,350.364288 148.638977,288.059296 
	C171.666168,249.793930 201.044403,216.718567 234.761520,187.489670 
	C290.318817,139.327774 354.293213,108.297165 426.272705,93.684982 
	C451.730499,88.516922 477.444427,86.112709 503.461273,85.456604 
	C563.304199,83.947472 621.112000,93.861183 676.577637,115.980560 
	C741.566345,141.897659 796.325806,182.329788 841.449646,235.832184 
	C882.022156,283.938171 910.821228,338.184601 926.734558,399.129852 
	C933.374451,424.559723 937.326538,450.433472 939.520081,476.652832 
	C941.275330,497.632080 940.451355,518.561951 940.180786,539.519104 
	C940.129395,543.497314 939.626343,547.469788 939.324707,551.912598 
M721.225342,165.335098 
	C670.489502,134.670715 615.084229,118.021622 556.527832,111.638374 
	C530.723083,108.825401 504.770721,108.751045 478.757233,111.050842 
	C446.778442,113.878036 415.607452,120.128799 385.125153,129.914047 
	C330.975983,147.296707 283.453857,176.095169 241.499954,214.268692 
	C190.935257,260.277100 154.526199,315.665375 132.286041,380.288208 
	C120.053886,415.830933 113.326187,452.429230 111.081596,489.996948 
	C109.445732,517.376343 110.479988,544.580627 114.597076,571.573242 
	C119.548058,604.033020 128.313431,635.558105 141.080048,665.899597 
	C181.399857,761.724731 249.003296,831.783081 342.083923,877.216248 
	C383.201355,897.285889 427.007141,908.700256 472.539185,913.885742 
	C499.806549,916.991089 527.015015,917.393921 554.200134,914.473694 
	C584.843933,911.181885 614.837280,904.487427 643.985657,894.332947 
	C716.374573,869.114685 776.831238,826.729126 825.860962,767.876221 
	C864.284912,721.754028 889.571716,669.011719 904.612976,611.200134 
	C910.980530,586.725891 914.130493,561.710938 915.846924,536.452820 
	C917.251038,515.790710 917.229492,495.164642 915.443604,474.614868 
	C913.256653,449.449951 908.674500,424.652679 901.841980,400.256012 
	C885.896912,343.321320 858.158997,292.710022 819.766907,248.028793 
	C791.674683,215.334717 758.861572,187.948334 721.225342,165.335098 
z"/>
<path fill="#ab7657" opacity="1.000000" stroke="none" 
	d="
M482.172150,208.153534 
	C487.570587,203.666092 492.602386,199.289276 497.831970,195.163147 
	C508.260925,186.934769 517.845032,186.656723 528.265015,194.959167 
	C541.291382,205.338272 553.942322,216.189041 566.741272,226.853012 
	C599.762329,254.365799 632.680786,282.003082 665.865295,309.317139 
	C673.245544,315.391754 675.066101,322.929291 672.383423,333.143524 
	C670.170959,341.568024 663.338989,345.312500 652.889465,345.337128 
	C642.209412,345.362305 643.367981,344.360443 643.360229,355.092346 
	C643.331604,394.754517 643.383301,434.416809 643.289673,474.078735 
	C643.281616,477.494904 644.157959,480.008820 646.718750,482.389343 
	C659.111450,493.909637 669.200378,507.309753 678.282837,522.414734 
	C682.040710,517.793335 684.233093,512.810974 686.372253,507.887115 
	C691.131592,496.932373 693.029968,485.342773 693.731995,473.463013 
	C694.544312,459.715271 694.256409,445.695404 699.085876,432.579437 
	C710.897461,400.500916 733.678650,380.946686 767.608704,375.663025 
	C815.126831,368.263458 853.833496,397.027740 864.526367,436.983246 
	C873.599854,470.888031 864.887756,504.621704 834.099915,524.866089 
	C824.341919,531.282349 813.546326,535.091003 801.949402,536.263611 
	C798.508911,536.611450 797.091248,537.907715 796.216980,541.146240 
	C790.031128,564.061157 780.519897,585.331604 764.837097,603.494324 
	C748.821960,622.042053 730.097534,637.041565 707.429016,646.633484 
	C702.656006,648.653198 702.601013,650.648682 704.560120,654.756531 
	C712.306519,670.999084 719.085999,687.622498 722.770630,705.341370 
	C723.753601,710.068176 724.487000,714.804443 724.339050,719.676270 
	C724.061096,728.827271 719.893921,735.289795 710.903259,737.161743 
	C691.237122,741.256470 671.615417,741.039429 652.530579,733.761597 
	C650.912415,733.144592 649.630310,732.633606 647.863586,733.473633 
	C636.469727,738.891479 624.218994,740.071716 611.850525,740.193970 
	C601.534485,740.295959 591.226074,740.478333 580.896484,739.518250 
	C567.666748,738.288635 561.929993,731.000854 563.906677,717.519775 
	C565.000061,710.062805 567.947266,703.154663 569.822205,695.351440 
	C563.350586,695.511230 557.561768,697.464905 551.689270,698.591187 
	C522.532532,704.182983 493.179047,704.348755 463.702087,702.469360 
	C445.404755,701.302734 427.399323,698.251099 409.575562,694.177979 
	C405.147278,693.166016 402.833099,694.409790 400.543976,697.899658 
	C391.020874,712.418213 378.588776,723.694336 362.845032,731.247192 
	C351.838379,736.527405 340.176086,738.860413 328.086121,739.226990 
	C315.262573,739.615784 302.445526,739.324219 289.648895,738.289490 
	C277.456482,737.303589 273.095947,731.736938 274.546509,719.542908 
	C275.869415,708.421814 281.047058,698.997498 287.027435,689.929688 
	C290.711884,684.343079 294.017426,678.592407 296.649323,672.451355 
	C298.635681,667.816467 297.868622,666.594238 293.067932,667.214600 
	C270.676422,670.107849 248.916870,667.966736 228.009628,659.124512 
	C216.347839,654.192383 205.798569,647.574890 198.056519,637.316406 
	C191.687592,628.877441 194.462219,620.527283 204.726685,617.721558 
	C214.998779,614.913757 225.358292,612.575134 234.900269,607.553955 
	C254.824432,597.069275 268.901733,581.120178 278.837097,561.210938 
	C287.999115,542.851379 297.909698,524.977661 310.815186,508.877838 
	C328.567108,486.732086 349.827179,468.799408 374.860046,455.523346 
	C380.568665,452.495819 382.913940,449.260925 382.823181,442.559326 
	C382.412537,412.234985 382.549591,381.901367 382.739075,351.572662 
	C382.768860,346.809174 381.434845,345.015045 376.559784,345.275360 
	C372.458435,345.494354 368.232178,346.026978 364.172485,344.584442 
	C349.522308,339.378876 345.880005,321.082184 357.744354,310.709564 
	C367.772034,301.942688 378.304474,293.754150 388.589874,285.280914 
	C419.697723,259.653931 450.794098,234.013016 482.172150,208.153534 
M575.830872,267.689697 
	C566.422974,259.737183 556.601501,252.216965 547.717102,243.717285 
	C537.731567,234.164169 525.509949,228.648865 513.548706,222.517075 
	C512.420044,221.938522 511.219269,222.005127 510.223785,222.744034 
	C503.047638,228.070679 494.495361,231.144684 487.530731,236.852432 
	C462.927551,257.015717 438.249146,277.087158 413.591217,297.183624 
	C406.619202,302.865906 399.572937,308.458191 392.652039,314.201782 
	C388.963318,317.263031 389.423462,319.927734 393.787811,321.952057 
	C394.386353,322.229736 395.051208,322.368408 395.690613,322.553284 
	C403.056091,324.683380 407.322968,329.417877 407.786469,337.198608 
	C407.994263,340.687012 407.982758,344.191376 407.986816,347.688599 
	C408.020691,376.663727 407.977448,405.639069 408.104645,434.613739 
	C408.129364,440.246521 409.488098,441.019501 414.902557,439.238770 
	C449.390198,427.896118 484.618408,424.326904 520.712708,428.552124 
	C553.020691,432.334137 583.350891,442.098969 611.941711,457.489227 
	C613.483765,458.319305 614.890320,459.763123 616.992065,459.201233 
	C618.544556,457.219971 618.542786,454.872894 618.572754,452.558350 
	C618.620178,448.893250 618.602234,445.227203 618.604248,441.561554 
	C618.623047,406.904175 618.629883,372.246826 618.666077,337.589447 
	C618.673889,330.149292 621.453552,325.622101 627.307983,323.251160 
	C633.508362,320.740143 634.337708,316.248383 629.072510,311.837097 
	C611.583557,297.184662 593.973083,282.677338 575.830872,267.689697 
M359.123383,623.577759 
	C337.356567,616.402710 316.824951,606.590637 297.285187,594.651245 
	C290.363159,590.421692 290.282227,590.398010 285.449127,596.550598 
	C272.859253,612.577698 257.481720,624.978638 238.618149,632.921509 
	C237.152161,633.538818 235.563187,634.085754 234.510956,635.640564 
	C237.294342,637.714172 240.414764,638.808838 243.600235,639.747253 
	C266.512543,646.496826 289.330658,644.586670 312.074707,638.879883 
	C324.241150,635.827209 331.504761,642.658569 328.586975,654.846008 
	C324.277069,672.848267 316.826477,689.466309 305.983124,704.525879 
	C304.167938,707.046814 302.386108,709.630798 301.591095,713.218201 
	C304.552979,713.627869 307.136261,714.247925 309.730957,714.300049 
	C323.184357,714.570190 336.827454,715.676636 349.662903,710.514832 
	C365.467285,704.159180 376.240021,692.123047 385.031372,677.917358 
	C392.966187,665.095825 393.103638,665.396545 407.501892,668.744263 
	C440.103943,676.324463 473.203613,678.599792 506.600769,677.865051 
	C517.934753,677.615601 529.182861,676.719910 540.369507,675.085327 
	C555.538940,672.868652 570.332825,669.152954 584.752625,663.829773 
	C593.221069,660.703552 598.635681,664.531372 599.381409,673.718567 
	C600.067627,682.172852 597.766296,690.175049 595.233948,698.124878 
	C593.528625,703.478516 590.859009,708.522217 589.843445,714.145752 
	C591.836792,715.766174 594.036316,715.612061 596.175842,715.617065 
	C604.839844,715.637573 613.504395,715.565918 622.167603,715.647766 
	C632.346008,715.743896 639.817993,711.653259 645.283630,702.785889 
	C666.059631,669.078979 676.990173,632.899536 673.557190,593.048523 
	C672.927856,585.742859 672.368896,578.285461 669.358521,570.885803 
	C666.702759,573.206665 664.474304,575.167908 662.230408,577.111206 
	C659.838928,579.182373 657.521118,581.350952 655.020020,583.281189 
	C605.169617,621.752319 548.083801,639.711731 485.781342,642.109924 
	C462.132904,643.020203 438.626404,639.796936 415.214417,636.640747 
	C396.388672,634.102966 378.009094,629.455933 359.123383,623.577759 
M782.832520,511.805389 
	C787.104431,510.810638 791.446594,510.835815 795.767639,511.149536 
	C810.648865,512.229797 822.542419,506.138519 831.566467,494.970825 
	C845.671875,477.514709 846.666565,457.685516 839.022156,437.443878 
	C829.570435,412.416809 806.068115,397.807098 778.288452,399.015106 
	C757.004028,399.940643 740.703552,409.660431 728.750427,427.360962 
	C719.634766,440.859497 718.974915,456.118958 718.414001,471.414276 
	C717.403992,498.954590 710.280884,524.249207 692.396790,545.834045 
	C690.713013,547.866272 689.858093,549.923462 690.670654,552.700806 
	C696.880310,573.926025 699.744934,595.602051 699.279785,617.724976 
	C699.166931,623.095459 700.161560,623.669861 705.123230,621.303589 
	C721.520996,613.483154 735.110779,602.072205 746.379089,587.980713 
	C762.113159,568.304626 771.326538,545.665283 775.646667,520.953979 
	C776.354187,516.906860 778.210999,513.788757 782.832520,511.805389 
M418.601532,545.162720 
	C422.446259,537.742798 427.037598,530.779724 432.263367,524.296021 
	C434.898254,521.026855 434.552246,518.692993 432.063599,515.611633 
	C420.149017,500.859314 405.318634,490.365021 387.534088,483.787109 
	C382.321747,481.859222 378.149719,482.409729 373.527588,485.404999 
	C343.131287,505.102814 319.697845,530.737976 305.121063,564.172668 
	C303.548157,567.780518 303.909851,569.876648 307.295624,571.955811 
	C332.892761,587.674316 360.130676,599.297180 389.521057,605.869934 
	C393.903107,606.849976 394.905914,605.426880 395.846832,601.722107 
	C400.829742,582.102722 408.262634,563.434570 418.601532,545.162720 
M420.289398,611.692078 
	C433.525970,614.306213 446.931763,615.861145 460.361969,616.531372 
	C492.804321,618.150146 524.873596,615.634338 556.133240,606.053772 
	C562.295776,604.164978 562.850830,603.551208 560.796875,597.202881 
	C553.401733,574.346619 542.557190,553.283508 527.826721,534.236145 
	C525.684937,531.466675 523.450500,530.222290 519.897156,530.250305 
	C501.068329,530.398865 482.237305,530.379272 463.408081,530.255432 
	C460.284760,530.234924 458.178162,531.172302 456.188202,533.619690 
	C438.993073,554.767273 427.600800,578.829224 420.130554,604.874146 
	C419.527802,606.975708 418.014282,609.139160 420.289398,611.692078 
M559.319031,506.811310 
	C556.509644,510.099396 553.787720,513.467773 550.863342,516.650269 
	C548.492859,519.229919 548.845947,521.285950 550.877380,524.035767 
	C560.006470,536.393188 567.474609,549.722473 573.641113,563.808533 
	C578.102356,573.999329 581.975403,584.410828 585.529114,595.013733 
	C586.566833,594.869019 587.273376,594.921631 587.845154,594.669006 
	C614.119324,583.062012 638.218506,568.263306 657.962219,547.023132 
	C660.330139,544.475708 660.622925,542.293884 659.068481,539.059570 
	C647.262512,514.495056 628.699890,496.452057 605.519531,482.730621 
	C603.711426,481.660370 602.165771,481.806152 600.343018,482.421509 
	C585.155273,487.549164 571.554688,495.350189 559.319031,506.811310 
M426.115662,476.327820 
	C436.256134,483.757324 445.376526,492.255798 452.892395,502.363037 
	C454.654968,504.733276 456.586029,505.764160 459.574310,505.750732 
	C481.236694,505.653259 502.899841,505.666260 524.562378,505.748291 
	C527.477722,505.759338 529.485901,504.905701 531.323914,502.505402 
	C541.877075,488.724121 554.504944,477.258484 569.773621,468.827942 
	C570.546326,468.401337 571.681274,468.234894 571.830872,466.338409 
	C518.627502,446.205292 465.580566,447.314606 411.281616,466.444672 
	C416.938904,470.193268 421.240845,473.043762 426.115662,476.327820 
M688.529785,679.702942 
	C686.934509,678.460022 685.247742,677.625977 684.164673,680.133362 
	C679.242920,691.527527 673.609131,702.580017 667.482239,714.183716 
	C676.502075,715.524231 684.927368,714.657410 693.307800,714.616882 
	C698.542908,714.591614 699.289917,713.391235 698.009460,708.101257 
	C695.704651,698.579163 692.587402,689.318542 688.529785,679.702942 
z"/>
<path fill="#717e54" opacity="1.000000" stroke="none" 
	d="
M437.655457,744.301636 
	C435.318024,740.637512 432.839844,737.431946 431.150482,733.853943 
	C429.567200,730.500488 428.842163,726.643494 432.252686,723.733276 
	C435.594269,720.881836 439.331482,721.206360 442.960938,723.280823 
	C447.317932,725.771057 451.198517,728.896057 454.866486,732.322754 
	C469.156372,745.672546 478.940887,761.953491 486.088776,779.976807 
	C486.798523,781.766357 487.008423,783.881653 489.006226,785.062317 
	C491.170288,784.001343 491.097382,781.750427 491.607147,779.976135 
	C496.042633,764.538635 502.927490,750.482056 514.328735,738.913391 
	C515.379028,737.847839 516.402100,736.716858 517.605713,735.849060 
	C520.128845,734.029968 522.942322,732.834106 526.000427,734.315186 
	C528.972778,735.754761 530.189209,738.455017 530.330383,741.671936 
	C530.425415,743.839172 530.519043,746.006836 529.532043,748.043213 
	C518.841553,770.100281 513.614319,793.821777 508.513519,817.562378 
	C507.576752,821.922363 504.987396,824.086182 501.017456,824.205566 
	C493.549591,824.430054 486.034912,824.899048 478.619019,823.324646 
	C474.343384,822.416931 471.696320,820.240540 470.573914,815.654114 
	C464.265442,789.876160 454.586700,765.600769 437.655457,744.301636 
z"/>
<path fill="#717e54" opacity="1.000000" stroke="none" 
	d="
M384.964172,746.626709 
	C387.646881,746.570557 389.679016,747.335388 391.506104,748.533020 
	C412.656158,762.397217 428.441010,780.458557 435.523529,805.230103 
	C437.663757,812.715698 435.634613,817.957703 430.141663,819.890015 
	C421.072327,823.080444 413.724884,820.683533 411.059875,812.978577 
	C404.922363,795.234192 394.981262,779.789490 383.257660,765.349548 
	C381.251221,762.878296 379.434814,760.273193 378.301239,757.300110 
	C376.084351,751.485779 378.418915,747.576416 384.964172,746.626709 
z"/>
<path fill="#717e54" opacity="1.000000" stroke="none" 
	d="
M534.783936,793.949463 
	C541.764038,780.709534 551.400024,770.251343 562.960754,761.500977 
	C566.638855,758.717102 570.733826,757.106140 574.800842,760.555115 
	C578.791382,763.939209 578.071106,768.477478 576.178040,772.482727 
	C574.416992,776.208679 571.798279,779.543701 569.440063,782.970276 
	C562.968323,792.374207 557.986572,802.464355 554.933838,813.496887 
	C553.415283,818.984985 550.587158,821.079346 544.826721,821.296509 
	C543.661804,821.340454 542.494324,821.316528 541.328003,821.319580 
	C530.101624,821.348511 526.869141,817.283691 529.902954,806.364380 
	C531.053894,802.221924 533.026917,798.307861 534.783936,793.949463 
z"/>
<path fill="#717e54" opacity="1.000000" stroke="none" 
	d="
M615.602051,776.588196 
	C620.288391,772.300171 624.816772,768.374573 629.982727,765.285950 
	C631.829407,764.181824 633.761414,763.151611 635.772949,762.407898 
	C638.850037,761.270142 642.070435,760.846619 644.555603,763.620789 
	C646.928406,766.269348 646.746765,769.374878 645.459839,772.515686 
	C643.667297,776.890137 640.726379,780.544189 637.899719,784.223022 
	C630.975769,793.234497 625.160278,802.903076 620.060852,813.034607 
	C615.869873,821.361328 604.354553,824.345032 596.625488,819.165283 
	C592.803589,816.604004 591.986694,812.502136 594.842590,806.671692 
	C600.198303,795.738037 606.097900,785.119690 615.602051,776.588196 
z"/>
<path fill="#ab7657" opacity="1.000000" stroke="none" 
	d="
M474.677216,379.146118 
	C474.749725,369.783203 476.661621,367.854980 485.543701,367.796600 
	C489.873077,367.768158 494.204987,367.721069 498.531952,367.830933 
	C504.078339,367.971741 506.175873,369.961060 506.288818,375.325348 
	C506.411499,381.151093 506.297119,386.981506 506.322723,392.809692 
	C506.343475,397.538513 503.795380,399.978394 499.303497,400.138733 
	C493.316345,400.352448 487.313660,400.304657 481.322235,400.168518 
	C476.877380,400.067596 474.706329,397.515594 474.689117,393.112030 
	C474.671570,388.615875 474.679840,384.119690 474.677216,379.146118 
z"/>
<path fill="#ab7657" opacity="1.000000" stroke="none" 
	d="
M523.806274,399.701294 
	C520.557007,398.365753 519.558594,396.153656 519.596558,393.183014 
	C519.675354,387.021332 519.720703,380.856171 519.599243,374.696014 
	C519.511475,370.246735 521.978210,368.105225 525.937683,367.953522 
	C532.084534,367.717957 538.255066,367.889404 544.408264,368.099640 
	C548.803955,368.249847 551.076477,370.828857 551.128418,375.177429 
	C551.200012,381.171570 551.253113,387.171539 551.064941,393.161224 
	C550.930725,397.432251 548.585510,400.100952 544.178467,400.139130 
	C537.527222,400.196838 530.873474,399.958527 523.806274,399.701294 
z"/>
<path fill="#ab7657" opacity="1.000000" stroke="none" 
	d="
M502.300568,354.930847 
	C495.239380,355.139252 488.601593,355.337982 481.969513,355.217957 
	C476.882080,355.125946 474.786255,352.891144 474.700226,347.805481 
	C474.601959,341.997620 474.696289,336.186707 474.674988,330.377258 
	C474.658417,325.851105 476.915588,323.663513 481.403778,323.658813 
	C487.711060,323.652191 494.018341,323.621368 500.325623,323.606201 
	C504.208405,323.596832 506.207397,325.673798 506.274536,329.421997 
	C506.393463,336.059235 506.314117,342.699860 506.341736,349.338959 
	C506.352753,351.982056 505.026978,353.696442 502.300568,354.930847 
z"/>
<path fill="#ab7657" opacity="1.000000" stroke="none" 
	d="
M519.599243,332.174316 
	C519.817078,324.474060 520.660583,323.628235 527.770996,323.618469 
	C533.268921,323.610931 538.768799,323.728821 544.264099,323.613373 
	C548.611633,323.522003 550.930908,325.634888 551.064026,329.801422 
	C551.260681,335.958740 551.288940,342.131989 551.082458,348.288177 
	C550.927917,352.896881 548.099548,355.154297 543.572754,355.211365 
	C537.742310,355.284912 531.909790,355.328003 526.079773,355.255371 
	C521.827759,355.202423 519.683838,352.860474 519.642517,348.644806 
	C519.590393,343.313812 519.604248,337.982208 519.599243,332.174316 
z"/>
<path fill="#ab7657" opacity="1.000000" stroke="none" 
	d="
M781.699097,456.359955 
	C776.082703,449.715698 775.225281,443.785309 778.685181,437.363617 
	C781.608032,431.938782 787.978821,428.599365 794.074158,429.297089 
	C800.652832,430.050140 805.928040,434.697571 807.754333,441.406708 
	C809.316711,447.146210 807.359863,451.964111 803.323303,455.874542 
	C799.105652,459.960449 793.913269,461.332520 788.151550,459.763702 
	C785.904297,459.151825 783.802734,458.128265 781.699097,456.359955 
z"/>
</svg>
